<svg id="Objects" xmlns="http://www.w3.org/2000/svg" viewBox="0 0 270.57 233.87"><defs><style>.cls-1{fill:#fff;}</style></defs><title>logotext</title><path class="cls-1" d="M288.54,483.9v6.89H264.71V455.12h8V483.9Z" transform="translate(-264.71 -257.64)"/><path class="cls-1" d="M326.63,472.93a22,22,0,0,1-1.36,8.06,16.84,16.84,0,0,1-3.73,5.82,15.36,15.36,0,0,1-5.64,3.52,20.45,20.45,0,0,1-7,1.18,19.93,19.93,0,0,1-6.9-1.18,15.86,15.86,0,0,1-5.66-3.52,16.45,16.45,0,0,1-3.81-5.82,21.53,21.53,0,0,1-1.39-8.06,20.91,20.91,0,0,1,1.44-8.05,17.13,17.13,0,0,1,3.89-5.84,15.91,15.91,0,0,1,5.66-3.55,19.41,19.41,0,0,1,6.77-1.19,19.92,19.92,0,0,1,6.89,1.19,15.66,15.66,0,0,1,5.66,3.55,16.54,16.54,0,0,1,3.81,5.84A21.52,21.52,0,0,1,326.63,472.93Zm-27.23,0a16.22,16.22,0,0,0,.65,4.74,10.72,10.72,0,0,0,1.85,3.63,8.23,8.23,0,0,0,3,2.34,10.17,10.17,0,0,0,8,0,8.17,8.17,0,0,0,3-2.34,10.72,10.72,0,0,0,1.85-3.63,16.22,16.22,0,0,0,.65-4.74,16.45,16.45,0,0,0-.65-4.76,10.73,10.73,0,0,0-1.85-3.65,8.06,8.06,0,0,0-3-2.34,9.32,9.32,0,0,0-4-.83,9.2,9.2,0,0,0-4,.85,8.54,8.54,0,0,0-3,2.37,10.73,10.73,0,0,0-1.85,3.65A16.3,16.3,0,0,0,299.4,472.93Z" transform="translate(-264.71 -257.64)"/><path class="cls-1" d="M350.72,461.3q-5.61,0-8.11,3.12t-2.49,8.51a17.16,17.16,0,0,0,.61,4.76,10.51,10.51,0,0,0,1.86,3.69,8.31,8.31,0,0,0,3.09,2.39,10.18,10.18,0,0,0,4.32.85c.89,0,1.65,0,2.29-.06a10.77,10.77,0,0,0,1.67-.2V472h8v17.65a29.91,29.91,0,0,1-4.63,1.21,40.65,40.65,0,0,1-7.88.64,20.55,20.55,0,0,1-7.28-1.23,15.24,15.24,0,0,1-5.58-3.61,15.9,15.9,0,0,1-3.58-5.81,22.86,22.86,0,0,1-1.26-7.88,21,21,0,0,1,1.39-7.92,16.81,16.81,0,0,1,3.81-5.84,16,16,0,0,1,5.68-3.63,19.46,19.46,0,0,1,7-1.24,27.3,27.3,0,0,1,4.55.34,28.6,28.6,0,0,1,3.51.77,15.92,15.92,0,0,1,2.41.9c.64.31,1.09.55,1.37.72l-2.32,6.43a21.41,21.41,0,0,0-3.78-1.52A16.45,16.45,0,0,0,350.72,461.3Z" transform="translate(-264.71 -257.64)"/><path class="cls-1" d="M403.42,472.93a22,22,0,0,1-1.36,8.06,16.7,16.7,0,0,1-3.73,5.82,15.36,15.36,0,0,1-5.64,3.52,20.45,20.45,0,0,1-7,1.18,19.93,19.93,0,0,1-6.9-1.18,15.86,15.86,0,0,1-5.66-3.52A16.73,16.73,0,0,1,369.3,481a21.53,21.53,0,0,1-1.39-8.06,20.91,20.91,0,0,1,1.44-8.05,17.13,17.13,0,0,1,3.89-5.84,15.91,15.91,0,0,1,5.66-3.55,19.41,19.41,0,0,1,6.77-1.19,19.92,19.92,0,0,1,6.89,1.19,15.7,15.7,0,0,1,5.67,3.55,16.81,16.81,0,0,1,3.81,5.84A21.72,21.72,0,0,1,403.42,472.93Zm-27.22,0a16.23,16.23,0,0,0,.64,4.74,10.91,10.91,0,0,0,1.85,3.63,8.23,8.23,0,0,0,3,2.34,10.19,10.19,0,0,0,8,0,8.13,8.13,0,0,0,3-2.34,10.55,10.55,0,0,0,1.85-3.63,16.22,16.22,0,0,0,.65-4.74,16.45,16.45,0,0,0-.65-4.76,10.56,10.56,0,0,0-1.85-3.65,8,8,0,0,0-3-2.34,9.4,9.4,0,0,0-4-.83,9.2,9.2,0,0,0-4,.85,8.54,8.54,0,0,0-3,2.37,10.91,10.91,0,0,0-1.85,3.65A16.31,16.31,0,0,0,376.2,472.93Z" transform="translate(-264.71 -257.64)"/><path class="cls-1" d="M435.39,455.12V462H424.63v28.82h-8V462H405.84v-6.85Z" transform="translate(-264.71 -257.64)"/><path class="cls-1" d="M440.53,490.79V455.12h24.09v6.75H448.56v7h14.26v6.59H448.56v8.59h17.25v6.74Z" transform="translate(-264.71 -257.64)"/><path class="cls-1" d="M493.26,490.79q-1.51-3-3.3-6a21.49,21.49,0,0,0-4.11-5.17c-.48.53-1.09,1.27-1.83,2.21s-1.47,1.95-2.21,3-1.42,2.16-2.07,3.3-1.12,2-1.43,2.68h-9.16a93.49,93.49,0,0,1,5.31-8.62q3.07-4.46,6.84-9.45l-11.63-17.6h9.72l6.8,10.33,6.94-10.33h9.17l-11.58,17.22a109.51,109.51,0,0,1,7.5,10.46q2.94,4.76,4.64,8Z" transform="translate(-264.71 -257.64)"/><path class="cls-1" d="M535.29,455.12V462H524.53v28.82h-8V462H505.75v-6.85Z" transform="translate(-264.71 -257.64)"/><path class="cls-1" d="M446,257.64l-23,23-23-23L389.74,267.9l74,74.68L423,383.3l-12.39-12.39,28.33-28.33L354,257.64l-84.94,84.94L354,427.52l23-23,23,23L410.53,417l-74.25-74.41L377,301.85l12.39,12.4-28.33,28.33L446,427.52l84.94-84.94ZM315.06,342.58l51.33,51.33L354,406.3l-63.72-63.72L354,278.85l12.39,12.4Zm67.22,0L400,324.86l17.72,17.72L400,360.3Zm51.33,51.33,51.33-51.33-51.33-51.33L446,278.85l63.72,63.73L446,406.3Z" transform="translate(-264.71 -257.64)"/></svg>